<svg width="15" height="15" viewBox="0 0 15 15" fill="none" xmlns="http://www.w3.org/2000/svg">
<path d="M13.4987 6.91501C13.4235 6.85823 13.3365 6.8191 13.2441 6.80049C13.1517 6.78188 13.0563 6.78428 12.965 6.80751C12.8135 6.84983 12.6572 6.87252 12.5 6.87501C11.4662 6.87501 10.625 6.03376 10.6231 5.03938C10.6262 5.01813 10.6331 4.95439 10.6337 4.93314C10.6378 4.83542 10.6189 4.73812 10.5784 4.64909C10.538 4.56006 10.4771 4.48178 10.4008 4.42058C10.3246 4.35939 10.235 4.31699 10.1393 4.2968C10.0436 4.27662 9.94449 4.27921 9.84999 4.30438C9.69539 4.34844 9.53571 4.37218 9.37499 4.37501C8.34124 4.37501 7.49999 3.53376 7.49999 2.50001C7.49999 2.36438 7.51936 2.22251 7.56186 2.05251C7.58592 1.95547 7.58635 1.85408 7.56312 1.75684C7.53988 1.65961 7.49366 1.56936 7.42833 1.49369C7.363 1.41801 7.28047 1.35911 7.18767 1.32193C7.09486 1.28475 6.9945 1.27037 6.89499 1.28001C5.34715 1.42427 3.90937 2.14268 2.86464 3.29382C1.81991 4.44497 1.2439 5.94548 1.24999 7.50001C1.24999 10.9463 4.05374 13.75 7.49999 13.75C10.9462 13.75 13.75 10.9463 13.75 7.50001C13.75 7.46938 13.7481 7.43938 13.7456 7.40001C13.7435 7.30582 13.7202 7.21331 13.6775 7.12935C13.6348 7.04539 13.5737 6.97213 13.4987 6.91501ZM7.49999 12.5C4.74311 12.5 2.49999 10.2569 2.49999 7.50001C2.49553 6.38956 2.86261 5.30953 3.54283 4.43179C4.22305 3.55405 5.17731 2.92905 6.25374 2.65626C6.29472 3.45672 6.64135 4.21092 7.22211 4.76331C7.80287 5.3157 8.57348 5.62414 9.37499 5.62501L9.43811 5.62438C9.58154 6.32329 9.95949 6.95221 10.5093 7.40689C11.0591 7.86158 11.7478 8.11473 12.4612 8.12438C12.1525 10.5881 10.0456 12.5 7.49999 12.5Z" fill="#F8F8F8"/>
<path d="M7.8125 8.125C8.33027 8.125 8.75 7.70527 8.75 7.1875C8.75 6.66973 8.33027 6.25 7.8125 6.25C7.29473 6.25 6.875 6.66973 6.875 7.1875C6.875 7.70527 7.29473 8.125 7.8125 8.125Z" fill="#F8F8F8"/>
<path d="M5.3125 6.25C5.83027 6.25 6.25 5.83027 6.25 5.3125C6.25 4.79473 5.83027 4.375 5.3125 4.375C4.79473 4.375 4.375 4.79473 4.375 5.3125C4.375 5.83027 4.79473 6.25 5.3125 6.25Z" fill="#F8F8F8"/>
<path d="M4.6875 8.75C5.20527 8.75 5.625 8.33027 5.625 7.8125C5.625 7.29473 5.20527 6.875 4.6875 6.875C4.16973 6.875 3.75 7.29473 3.75 7.8125C3.75 8.33027 4.16973 8.75 4.6875 8.75Z" fill="#F8F8F8"/>
<path d="M9.6875 10.625C10.2053 10.625 10.625 10.2053 10.625 9.6875C10.625 9.16973 10.2053 8.75 9.6875 8.75C9.16973 8.75 8.75 9.16973 8.75 9.6875C8.75 10.2053 9.16973 10.625 9.6875 10.625Z" fill="#F8F8F8"/>
<path d="M6.5625 11.25C7.08027 11.25 7.5 10.8303 7.5 10.3125C7.5 9.79473 7.08027 9.375 6.5625 9.375C6.04473 9.375 5.625 9.79473 5.625 10.3125C5.625 10.8303 6.04473 11.25 6.5625 11.25Z" fill="#F8F8F8"/>
</svg>
