<svg width="274" height="803" viewBox="0 0 274 803" fill="none" xmlns="http://www.w3.org/2000/svg">
<path fill-rule="evenodd" clip-rule="evenodd" d="M377.711 4V798.161C156.896 659.765 -48.2359 478.867 14.4441 328.925C84.3316 161.741 249.117 57.4494 377.711 4Z" fill="#A383FF"/>
<path d="M377.711 4H380.211V0.253538L376.752 1.69147L377.711 4ZM377.711 798.161L376.384 800.28L380.211 802.679V798.161H377.711ZM14.4441 328.925L12.1375 327.961L14.4441 328.925ZM377.711 4H375.211V798.161H377.711H380.211V4H377.711ZM377.711 798.161L379.039 796.043C268.71 726.894 162.462 647.223 91.6493 566.227C20.7269 485.107 -13.9994 403.449 16.7507 329.889L14.4441 328.925L12.1375 327.961C-19.7924 404.343 16.7075 488.106 87.885 569.518C159.172 651.056 265.898 731.033 376.384 800.28L377.711 798.161ZM14.4441 328.925L16.7507 329.889C86.2601 163.609 250.305 59.663 378.671 6.30853L377.711 4L376.752 1.69147C247.93 55.2357 82.4032 159.872 12.1375 327.961L14.4441 328.925Z" fill="#001858"/>
</svg>
